<svg width="123" height="40" viewBox="0 0 123 40" fill="none" xmlns="http://www.w3.org/2000/svg">
<path d="M12.6979 28.3659C12.6979 26.3587 14.3325 24.7316 16.349 24.7316C18.3655 24.7316 20.0001 26.3587 20.0001 28.3659C20.0001 30.373 18.3655 32.0001 16.349 32.0001C14.3325 32.0001 12.6979 30.373 12.6979 28.3659Z" fill="#8A6BFF"/>
<path d="M10.2318 11.6827C10.7337 12.029 11.4216 11.9127 11.7806 11.4209L13.8782 8.5475C14.2429 8.04789 14.9454 7.93716 15.4474 8.30018L19.5374 11.2582C20.0393 11.6212 20.1506 12.3205 19.7859 12.8201L6.12253 31.539C5.75783 32.0387 5.05527 32.1494 4.55331 31.7864L0.463406 28.8286C-0.0385507 28.4656 -0.149828 27.7663 0.214858 27.2667L6.16659 19.1124C6.53704 18.6049 6.41564 17.8934 5.89763 17.536L1.0229 14.1733C0.512935 13.8215 0.386032 13.1249 0.739455 12.6172L3.619 8.48145C3.97242 7.97384 4.67234 7.84753 5.1823 8.19932L10.2318 11.6827Z" fill="#8A6BFF"/>
<path d="M12.8862 22.258L5.02221 20.703L6.18976 19.1413C6.4947 18.7334 6.48484 18.1722 6.16576 17.7752L6.00521 17.5754L12.8862 22.258Z" fill="#6F4BEF"/>
<path d="M116.882 28.5878C115.699 28.5878 114.657 28.3295 113.757 27.8128C112.857 27.2795 112.157 26.5378 111.657 25.5878C111.157 24.6378 110.907 23.5295 110.907 22.2629C110.907 20.9795 111.157 19.8629 111.657 18.9129C112.157 17.9629 112.857 17.2212 113.757 16.6879C114.657 16.1546 115.699 15.8879 116.882 15.8879C118.082 15.8879 119.132 16.1546 120.032 16.6879C120.932 17.2212 121.632 17.9629 122.132 18.9129C122.632 19.8629 122.883 20.9795 122.883 22.2629C122.883 22.3795 122.874 22.5045 122.858 22.6379C122.858 22.7545 122.849 22.8629 122.833 22.9629H113.282V20.8129H121.032L120.332 22.2629C120.332 20.9962 120.049 19.9545 119.482 19.1379C118.916 18.3212 118.049 17.9129 116.882 17.9129C115.849 17.9129 115.024 18.2462 114.407 18.9129C113.791 19.5629 113.482 20.4212 113.482 21.4879V22.7879C113.482 23.9045 113.782 24.7962 114.382 25.4628C114.982 26.1128 115.816 26.4378 116.882 26.4378C117.866 26.4378 118.624 26.2295 119.157 25.8128C119.691 25.3962 120.157 24.8795 120.557 24.2628L122.433 25.4378C121.866 26.4878 121.132 27.2795 120.232 27.8128C119.349 28.3295 118.232 28.5878 116.882 28.5878Z" fill="#121115"/>
<path d="M104.887 28.5878C104.037 28.5878 103.195 28.3878 102.362 27.9878C101.545 27.5878 100.87 26.9045 100.337 25.9378L102.237 24.6878C102.703 25.3045 103.145 25.7545 103.562 26.0378C103.978 26.3045 104.52 26.4378 105.187 26.4378C105.72 26.4378 106.128 26.3045 106.412 26.0378C106.712 25.7545 106.862 25.4128 106.862 25.0128C106.862 24.7462 106.787 24.5128 106.637 24.3128C106.503 24.1128 106.262 23.9295 105.912 23.7628C105.562 23.5795 105.062 23.4045 104.412 23.2378C103.212 22.9212 102.287 22.5045 101.637 21.9879C100.987 21.4712 100.662 20.6545 100.662 19.5379C100.662 18.8712 100.828 18.2629 101.162 17.7129C101.495 17.1629 101.978 16.7212 102.612 16.3879C103.245 16.0546 103.995 15.8879 104.862 15.8879C105.895 15.8879 106.778 16.1046 107.512 16.5379C108.245 16.9546 108.82 17.4546 109.237 18.0379L107.312 19.4629C107.078 19.1629 106.737 18.8712 106.287 18.5879C105.837 18.2879 105.27 18.1379 104.587 18.1379C104.17 18.1379 103.787 18.2546 103.437 18.4879C103.087 18.7212 102.912 19.0462 102.912 19.4629C102.912 19.8795 103.07 20.2212 103.387 20.4879C103.72 20.7379 104.32 20.9629 105.187 21.1629C106.653 21.5129 107.695 21.9712 108.312 22.5379C108.928 23.0878 109.237 23.8212 109.237 24.7378C109.237 25.5378 109.028 26.2295 108.612 26.8128C108.212 27.3795 107.678 27.8211 107.012 28.1378C106.362 28.4378 105.653 28.5878 104.887 28.5878Z" fill="#121115"/>
<path d="M92.6054 28.6878C91.6554 28.6878 90.8388 28.5211 90.1554 28.1878C89.4721 27.8545 88.9471 27.3795 88.5804 26.7628C88.2304 26.1295 88.0554 25.3795 88.0554 24.5128C88.0554 23.7128 88.2387 23.0045 88.6054 22.3879C88.9721 21.7545 89.4971 21.2545 90.1804 20.8879C90.8638 20.5212 91.6721 20.3379 92.6054 20.3379C93.7721 20.3379 94.7054 20.6045 95.4054 21.1379C96.1221 21.6545 96.6221 22.3712 96.9054 23.2878H95.5054V20.1629C95.5054 19.6462 95.3304 19.1712 94.9804 18.7379C94.6304 18.3046 94.0138 18.0879 93.1304 18.0879C92.6638 18.0879 92.1471 18.1462 91.5804 18.2629C91.0304 18.3629 90.4554 18.5462 89.8554 18.8129L89.1054 16.8879C89.7887 16.5546 90.4971 16.3046 91.2304 16.1379C91.9638 15.9713 92.6804 15.8879 93.3804 15.8879C94.4304 15.8879 95.2971 16.0796 95.9804 16.4629C96.6638 16.8462 97.1721 17.3629 97.5055 18.0129C97.8388 18.6462 98.0055 19.3629 98.0055 20.1629V28.3378H96.2054L95.5804 26.1128L96.9054 25.7378C96.6054 26.7211 96.0721 27.4628 95.3054 27.9628C94.5388 28.4461 93.6388 28.6878 92.6054 28.6878ZM93.0554 26.4628C93.7888 26.4628 94.3804 26.2962 94.8304 25.9628C95.2804 25.6128 95.5054 25.1295 95.5054 24.5128C95.5054 23.8795 95.2804 23.3962 94.8304 23.0629C94.3804 22.7295 93.7888 22.5629 93.0554 22.5629C92.3221 22.5629 91.7304 22.7295 91.2804 23.0629C90.8304 23.3962 90.6054 23.8795 90.6054 24.5128C90.6054 25.1295 90.8304 25.6128 91.2804 25.9628C91.7304 26.2962 92.3221 26.4628 93.0554 26.4628Z" fill="#121115"/>
<path d="M81.09 28.5873C79.99 28.5873 79.0317 28.3206 78.215 27.7873C77.3983 27.2539 76.7566 26.5123 76.29 25.5623C75.8399 24.5956 75.6149 23.4789 75.6149 22.2122C75.6149 20.9456 75.8399 19.8372 76.29 18.8872C76.7566 17.9372 77.3983 17.2039 78.215 16.6872C79.0317 16.1539 79.99 15.8872 81.09 15.8872C82.2234 15.8872 83.2067 16.1539 84.0401 16.6872C84.8901 17.2039 85.5485 17.9372 86.0151 18.8872C86.4818 19.8372 86.7151 20.9456 86.7151 22.2122C86.7151 23.4789 86.4818 24.5956 86.0151 25.5623C85.5485 26.5123 84.8901 27.2539 84.0401 27.7873C83.2067 28.3206 82.2234 28.5873 81.09 28.5873ZM74.9149 28.3373V11.3122H77.415V18.9372H77.165V25.8873H77.415L76.815 28.3373H74.9149ZM80.715 26.4373C81.7484 26.4373 82.5817 26.0539 83.2151 25.2873C83.8484 24.5039 84.1651 23.4789 84.1651 22.2122C84.1651 20.9622 83.8484 19.9539 83.2151 19.1872C82.5817 18.4206 81.7484 18.0372 80.715 18.0372C79.6984 18.0372 78.8733 18.4206 78.24 19.1872C77.6066 19.9539 77.29 20.9706 77.29 22.2372C77.29 23.5039 77.6066 24.5206 78.24 25.2873C78.8733 26.0539 79.6984 26.4373 80.715 26.4373Z" fill="#121115"/>
<path d="M66.3026 28.5878C65.0693 28.5878 63.9776 28.3295 63.0276 27.8128C62.0943 27.2795 61.3693 26.5378 60.8526 25.5878C60.3359 24.6378 60.0776 23.5295 60.0776 22.2629C60.0776 20.9795 60.3359 19.8629 60.8526 18.9129C61.3693 17.9629 62.0943 17.2212 63.0276 16.6879C63.9776 16.1546 65.0693 15.8879 66.3026 15.8879C67.5526 15.8879 68.6443 16.1546 69.5776 16.6879C70.511 17.2212 71.236 17.9629 71.7527 18.9129C72.286 19.8629 72.5527 20.9795 72.5527 22.2629C72.5527 23.5295 72.286 24.6378 71.7527 25.5878C71.236 26.5378 70.511 27.2795 69.5776 27.8128C68.6443 28.3295 67.5526 28.5878 66.3026 28.5878ZM66.3026 26.1878C67.4193 26.1878 68.311 25.8295 68.9776 25.1128C69.661 24.3795 70.0026 23.4295 70.0026 22.2629C70.0026 21.0795 69.661 20.1212 68.9776 19.3879C68.311 18.6546 67.4193 18.2879 66.3026 18.2879C65.2026 18.2879 64.3109 18.6546 63.6276 19.3879C62.9609 20.1045 62.6276 21.0545 62.6276 22.2379C62.6276 23.4212 62.9609 24.3795 63.6276 25.1128C64.3109 25.8295 65.2026 26.1878 66.3026 26.1878Z" fill="#121115"/>
<path d="M56.8501 28.4623C56.4168 28.4623 56.0335 28.3623 55.7001 28.1623C55.3668 27.9456 55.1001 27.6373 54.9001 27.2373C54.7168 26.8373 54.6251 26.3456 54.6251 25.7623V11.3122H57.0751V24.8872C57.0751 25.4039 57.2001 25.7539 57.4501 25.9373C57.7168 26.1206 58.0168 26.2123 58.3502 26.2123V28.2123C58.1335 28.2956 57.9001 28.3539 57.6501 28.3873C57.4001 28.4373 57.1335 28.4623 56.8501 28.4623Z" fill="#121115"/>
<path d="M46.3984 28.5878C45.2151 28.5878 44.1734 28.3295 43.2734 27.8128C42.3734 27.2795 41.6734 26.5378 41.1734 25.5878C40.6734 24.6378 40.4234 23.5295 40.4234 22.2629C40.4234 20.9795 40.6734 19.8629 41.1734 18.9129C41.6734 17.9629 42.3734 17.2212 43.2734 16.6879C44.1734 16.1546 45.2151 15.8879 46.3984 15.8879C47.5984 15.8879 48.6484 16.1546 49.5484 16.6879C50.4484 17.2212 51.1484 17.9629 51.6484 18.9129C52.1484 19.8629 52.3984 20.9795 52.3984 22.2629C52.3984 22.3795 52.3901 22.5045 52.3734 22.6379C52.3734 22.7545 52.3651 22.8629 52.3484 22.9629H42.7984V20.8129H50.5484L49.8484 22.2629C49.8484 20.9962 49.5651 19.9545 48.9984 19.1379C48.4317 18.3212 47.5651 17.9129 46.3984 17.9129C45.3651 17.9129 44.5401 18.2462 43.9234 18.9129C43.3067 19.5629 42.9984 20.4212 42.9984 21.4879V22.7879C42.9984 23.9045 43.2984 24.7962 43.8984 25.4628C44.4984 26.1128 45.3317 26.4378 46.3984 26.4378C47.3817 26.4378 48.1401 26.2295 48.6734 25.8128C49.2067 25.3962 49.6734 24.8795 50.0734 24.2628L51.9484 25.4378C51.3818 26.4878 50.6484 27.2795 49.7484 27.8128C48.8651 28.3295 47.7484 28.5878 46.3984 28.5878Z" fill="#121115"/>
<path d="M35.6753 21.1371H34.0753L39.0254 11.3121H41.8254L35.7753 22.7621L36.1503 20.6121V28.3371H33.6503V20.6121L34.0003 22.7621L28.0002 11.3121H30.7752L35.6753 21.1371Z" fill="#121115"/>
</svg>
