<svg width="123" height="24" viewBox="0 0 123 24" fill="none" xmlns="http://www.w3.org/2000/svg">
<path d="M12.6976 20.3657C12.6976 18.3586 14.3323 16.7314 16.3488 16.7314C18.3652 16.7314 19.9999 18.3586 19.9999 20.3657C19.9999 22.3729 18.3652 24 16.3488 24C14.3323 24 12.6976 22.3729 12.6976 20.3657Z" fill="#6F4BEF"/>
<path d="M10.2318 3.68264C10.7337 4.02889 11.4216 3.91263 11.7806 3.42088L13.8782 0.547436C14.2429 0.0478194 14.9455 -0.0629105 15.4474 0.300111L19.5374 3.25812C20.0393 3.62114 20.1506 4.32045 19.7859 4.82008L6.12254 23.539C5.75784 24.0386 5.05528 24.1494 4.55333 23.7863L0.463421 20.8286C-0.0385354 20.4656 -0.149813 19.7663 0.214874 19.2666L6.16661 11.1124C6.53706 10.6048 6.41566 9.89332 5.89764 9.53598L1.02292 6.17326C0.51295 5.82147 0.386047 5.12479 0.73947 4.61718L3.61902 0.481379C3.97244 -0.0262307 4.67236 -0.152543 5.18232 0.199253L10.2318 3.68264Z" fill="#6F4BEF"/>
<path d="M12.886 14.2583L5.02197 12.7033L6.18952 11.1416C6.49446 10.7337 6.4846 10.1725 6.16552 9.77545L6.00497 9.57568L12.886 14.2583Z" fill="#5333C7"/>
<path d="M116.883 20.5881C115.7 20.5881 114.658 20.3297 113.758 19.8131C112.858 19.2797 112.158 18.5381 111.658 17.5881C111.158 16.6381 110.908 15.5298 110.908 14.2631C110.908 12.9798 111.158 11.8631 111.658 10.9132C112.158 9.96316 112.858 9.2215 113.758 8.68818C114.658 8.15485 115.7 7.88818 116.883 7.88818C118.083 7.88818 119.133 8.15485 120.033 8.68818C120.933 9.2215 121.633 9.96316 122.133 10.9132C122.633 11.8631 122.883 12.9798 122.883 14.2631C122.883 14.3798 122.875 14.5048 122.858 14.6381C122.858 14.7548 122.85 14.8631 122.833 14.9631H113.283V12.8131H121.033L120.333 14.2631C120.333 12.9965 120.05 11.9548 119.483 11.1382C118.916 10.3215 118.05 9.91316 116.883 9.91316C115.85 9.91316 115.025 10.2465 114.408 10.9132C113.791 11.5631 113.483 12.4215 113.483 13.4881V14.7881C113.483 15.9048 113.783 16.7964 114.383 17.4631C114.983 18.1131 115.816 18.4381 116.883 18.4381C117.866 18.4381 118.625 18.2298 119.158 17.8131C119.691 17.3964 120.158 16.8798 120.558 16.2631L122.433 17.4381C121.866 18.4881 121.133 19.2797 120.233 19.8131C119.35 20.3297 118.233 20.5881 116.883 20.5881Z" fill="white"/>
<path d="M104.887 20.5881C104.037 20.5881 103.195 20.3881 102.362 19.9881C101.545 19.5881 100.87 18.9047 100.337 17.9381L102.237 16.6881C102.704 17.3048 103.145 17.7548 103.562 18.0381C103.979 18.3048 104.52 18.4381 105.187 18.4381C105.72 18.4381 106.129 18.3048 106.412 18.0381C106.712 17.7548 106.862 17.4131 106.862 17.0131C106.862 16.7464 106.787 16.5131 106.637 16.3131C106.504 16.1131 106.262 15.9298 105.912 15.7631C105.562 15.5798 105.062 15.4048 104.412 15.2381C103.212 14.9214 102.287 14.5048 101.637 13.9881C100.987 13.4715 100.662 12.6548 100.662 11.5381C100.662 10.8715 100.829 10.2632 101.162 9.71317C101.495 9.16317 101.979 8.72151 102.612 8.38818C103.245 8.05485 103.995 7.88818 104.862 7.88818C105.895 7.88818 106.779 8.10485 107.512 8.53818C108.245 8.95484 108.82 9.45483 109.237 10.0382L107.312 11.4631C107.079 11.1632 106.737 10.8715 106.287 10.5882C105.837 10.2882 105.27 10.1382 104.587 10.1382C104.17 10.1382 103.787 10.2548 103.437 10.4882C103.087 10.7215 102.912 11.0465 102.912 11.4631C102.912 11.8798 103.07 12.2215 103.387 12.4881C103.72 12.7381 104.32 12.9631 105.187 13.1631C106.654 13.5131 107.695 13.9715 108.312 14.5381C108.929 15.0881 109.237 15.8214 109.237 16.7381C109.237 17.5381 109.029 18.2298 108.612 18.8131C108.212 19.3797 107.679 19.8214 107.012 20.1381C106.362 20.4381 105.654 20.5881 104.887 20.5881Z" fill="white"/>
<path d="M92.6059 20.6881C91.6559 20.6881 90.8392 20.5214 90.1558 20.1881C89.4725 19.8547 88.9475 19.3797 88.5808 18.7631C88.2308 18.1298 88.0558 17.3798 88.0558 16.5131C88.0558 15.7131 88.2392 15.0048 88.6058 14.3881C88.9725 13.7548 89.4975 13.2548 90.1808 12.8881C90.8642 12.5215 91.6725 12.3381 92.6059 12.3381C93.7725 12.3381 94.7059 12.6048 95.4059 13.1381C96.1225 13.6548 96.6225 14.3715 96.9059 15.2881H95.5059V12.1631C95.5059 11.6465 95.3309 11.1715 94.9809 10.7382C94.6309 10.3048 94.0142 10.0882 93.1309 10.0882C92.6642 10.0882 92.1475 10.1465 91.5809 10.2632C91.0308 10.3632 90.4558 10.5465 89.8558 10.8132L89.1058 8.88817C89.7892 8.55484 90.4975 8.30485 91.2309 8.13818C91.9642 7.97152 92.6809 7.88818 93.3809 7.88818C94.4309 7.88818 95.2975 8.07985 95.9809 8.46318C96.6642 8.84651 97.1725 9.36317 97.5059 10.0132C97.8392 10.6465 98.0059 11.3632 98.0059 12.1631V20.3381H96.2059L95.5809 18.1131L96.9059 17.7381C96.6059 18.7214 96.0725 19.4631 95.3059 19.9631C94.5392 20.4464 93.6392 20.6881 92.6059 20.6881ZM93.0559 18.4631C93.7892 18.4631 94.3809 18.2964 94.8309 17.9631C95.2809 17.6131 95.5059 17.1298 95.5059 16.5131C95.5059 15.8798 95.2809 15.3964 94.8309 15.0631C94.3809 14.7298 93.7892 14.5631 93.0559 14.5631C92.3225 14.5631 91.7309 14.7298 91.2809 15.0631C90.8308 15.3964 90.6058 15.8798 90.6058 16.5131C90.6058 17.1298 90.8308 17.6131 91.2809 17.9631C91.7309 18.2964 92.3225 18.4631 93.0559 18.4631Z" fill="white"/>
<path d="M81.091 20.5871C79.9909 20.5871 79.0326 20.3204 78.2159 19.7871C77.3992 19.2537 76.7575 18.5121 76.2909 17.5621C75.8409 16.5954 75.6159 15.4787 75.6159 14.212C75.6159 12.9454 75.8409 11.837 76.2909 10.887C76.7575 9.93703 77.3992 9.20369 78.2159 8.68703C79.0326 8.15369 79.9909 7.88702 81.091 7.88702C82.2243 7.88702 83.2077 8.15369 84.041 8.68703C84.891 9.20369 85.5494 9.93703 86.016 10.887C86.4827 11.837 86.7161 12.9454 86.7161 14.212C86.7161 15.4787 86.4827 16.5954 86.016 17.5621C85.5494 18.5121 84.891 19.2537 84.041 19.7871C83.2077 20.3204 82.2243 20.5871 81.091 20.5871ZM74.9158 20.3371V3.31201H77.4159V10.937H77.1659V17.8871H77.4159L76.8159 20.3371H74.9158ZM80.716 18.4371C81.7493 18.4371 82.5827 18.0537 83.216 17.287C83.8493 16.5037 84.166 15.4787 84.166 14.212C84.166 12.962 83.8493 11.9537 83.216 11.187C82.5827 10.4204 81.7493 10.037 80.716 10.037C79.6993 10.037 78.8743 10.4204 78.2409 11.187C77.6076 11.9537 77.2909 12.9704 77.2909 14.237C77.2909 15.5037 77.6076 16.5204 78.2409 17.287C78.8743 18.0537 79.6993 18.4371 80.716 18.4371Z" fill="white"/>
<path d="M66.3033 20.5881C65.07 20.5881 63.9783 20.3297 63.0283 19.8131C62.095 19.2797 61.37 18.5381 60.8533 17.5881C60.3366 16.6381 60.0783 15.5298 60.0783 14.2631C60.0783 12.9798 60.3366 11.8631 60.8533 10.9132C61.37 9.96316 62.095 9.2215 63.0283 8.68818C63.9783 8.15485 65.07 7.88818 66.3033 7.88818C67.5533 7.88818 68.645 8.15485 69.5783 8.68818C70.5117 9.2215 71.2367 9.96316 71.7534 10.9132C72.2867 11.8631 72.5534 12.9798 72.5534 14.2631C72.5534 15.5298 72.2867 16.6381 71.7534 17.5881C71.2367 18.5381 70.5117 19.2797 69.5783 19.8131C68.645 20.3297 67.5533 20.5881 66.3033 20.5881ZM66.3033 18.1881C67.42 18.1881 68.3117 17.8298 68.9783 17.1131C69.6617 16.3798 70.0033 15.4298 70.0033 14.2631C70.0033 13.0798 69.6617 12.1215 68.9783 11.3882C68.3117 10.6548 67.42 10.2882 66.3033 10.2882C65.2033 10.2882 64.3116 10.6548 63.6283 11.3882C62.9616 12.1048 62.6283 13.0548 62.6283 14.2381C62.6283 15.4214 62.9616 16.3798 63.6283 17.1131C64.3116 17.8298 65.2033 18.1881 66.3033 18.1881Z" fill="white"/>
<path d="M56.8505 20.4621C56.4172 20.4621 56.0338 20.3621 55.7005 20.1621C55.3672 19.9454 55.1005 19.6371 54.9005 19.2371C54.7172 18.8371 54.6255 18.3454 54.6255 17.7621V3.31201H57.0755V16.887C57.0755 17.4037 57.2005 17.7537 57.4505 17.9371C57.7172 18.1204 58.0172 18.2121 58.3506 18.2121V20.2121C58.1339 20.2954 57.9005 20.3537 57.6505 20.3871C57.4005 20.4371 57.1339 20.4621 56.8505 20.4621Z" fill="white"/>
<path d="M46.399 20.5881C45.2157 20.5881 44.174 20.3297 43.274 19.8131C42.374 19.2797 41.674 18.5381 41.174 17.5881C40.674 16.6381 40.424 15.5298 40.424 14.2631C40.424 12.9798 40.674 11.8631 41.174 10.9132C41.674 9.96316 42.374 9.2215 43.274 8.68818C44.174 8.15485 45.2157 7.88818 46.399 7.88818C47.599 7.88818 48.649 8.15485 49.549 8.68818C50.449 9.2215 51.1491 9.96316 51.6491 10.9132C52.1491 11.8631 52.3991 12.9798 52.3991 14.2631C52.3991 14.3798 52.3907 14.5048 52.3741 14.6381C52.3741 14.7548 52.3657 14.8631 52.3491 14.9631H42.799V12.8131H50.549L49.849 14.2631C49.849 12.9965 49.5657 11.9548 48.999 11.1382C48.4324 10.3215 47.5657 9.91316 46.399 9.91316C45.3657 9.91316 44.5407 10.2465 43.924 10.9132C43.3073 11.5631 42.999 12.4215 42.999 13.4881V14.7881C42.999 15.9048 43.299 16.7964 43.899 17.4631C44.499 18.1131 45.3324 18.4381 46.399 18.4381C47.3824 18.4381 48.1407 18.2298 48.674 17.8131C49.2074 17.3964 49.674 16.8798 50.074 16.2631L51.9491 17.4381C51.3824 18.4881 50.649 19.2797 49.749 19.8131C48.8657 20.3297 47.749 20.5881 46.399 20.5881Z" fill="white"/>
<path d="M35.6756 13.137H34.0756L39.0257 3.31201H41.8257L35.7756 14.762L36.1506 12.612V20.3371H33.6506V12.612L34.0006 14.762L28.0005 3.31201H30.7755L35.6756 13.137Z" fill="white"/>
</svg>
