<svg width="99" height="32" viewBox="0 0 99 32" fill="none" xmlns="http://www.w3.org/2000/svg">
<path d="M10.1584 22.6926C10.1584 21.0869 11.4661 19.7852 13.0793 19.7852C14.6925 19.7852 16.0002 21.0869 16.0002 22.6926C16.0002 24.2983 14.6925 25.6 13.0793 25.6C11.4661 25.6 10.1584 24.2983 10.1584 22.6926Z" fill="white"/>
<path d="M8.1855 9.34601C8.58704 9.62302 9.13735 9.53001 9.42453 9.13661L11.1026 6.83785C11.3944 6.43816 11.9564 6.34957 12.358 6.63999L15.6299 9.0064C16.0315 9.29681 16.1205 9.85626 15.8288 10.256L4.89808 25.2311C4.60632 25.6308 4.04428 25.7194 3.64271 25.429L0.370786 23.0628C-0.0307795 22.7724 -0.119802 22.2129 0.171948 21.8132L4.93333 15.2898C5.22969 14.8838 5.13257 14.3146 4.71816 14.0287L0.818381 11.3385C0.410409 11.0571 0.308886 10.4997 0.591625 10.0936L2.89526 6.78501C3.178 6.37892 3.73793 6.27787 4.1459 6.5593L8.1855 9.34601Z" fill="white"/>
<path d="M10.309 17.8064L4.01782 16.5624L4.95186 15.313C5.19581 14.9867 5.18792 14.5377 4.93266 14.2201L4.80422 14.0603L10.309 17.8064Z" fill="white"/>
<path d="M93.5062 22.8701C92.5595 22.8701 91.7262 22.6634 91.0061 22.2501C90.2861 21.8235 89.7261 21.2301 89.3261 20.4701C88.9261 19.7101 88.7261 18.8235 88.7261 17.8102C88.7261 16.7835 88.9261 15.8902 89.3261 15.1302C89.7261 14.3702 90.2861 13.7769 91.0061 13.3502C91.7262 12.9235 92.5595 12.7102 93.5062 12.7102C94.4662 12.7102 95.3062 12.9235 96.0262 13.3502C96.7462 13.7769 97.3062 14.3702 97.7062 15.1302C98.1062 15.8902 98.3062 16.7835 98.3062 17.8102C98.3062 17.9035 98.2995 18.0035 98.2862 18.1102C98.2862 18.2035 98.2795 18.2902 98.2662 18.3702H90.6261V16.6502H96.8262L96.2662 17.8102C96.2662 16.7968 96.0395 15.9635 95.5862 15.3102C95.1328 14.6569 94.4395 14.3302 93.5062 14.3302C92.6795 14.3302 92.0195 14.5969 91.5262 15.1302C91.0328 15.6502 90.7861 16.3368 90.7861 17.1902V18.2302C90.7861 19.1235 91.0261 19.8368 91.5061 20.3701C91.9862 20.8901 92.6528 21.1501 93.5062 21.1501C94.2928 21.1501 94.8995 20.9835 95.3262 20.6501C95.7528 20.3168 96.1262 19.9035 96.4462 19.4101L97.9462 20.3501C97.4928 21.1901 96.9062 21.8235 96.1862 22.2501C95.4795 22.6634 94.5862 22.8701 93.5062 22.8701Z" fill="white"/>
<path d="M83.9096 22.8701C83.2295 22.8701 82.5562 22.7101 81.8895 22.3901C81.2362 22.0701 80.6962 21.5235 80.2695 20.7501L81.7895 19.7501C82.1629 20.2435 82.5162 20.6035 82.8496 20.8301C83.1829 21.0435 83.6162 21.1501 84.1496 21.1501C84.5762 21.1501 84.9029 21.0435 85.1296 20.8301C85.3696 20.6035 85.4896 20.3301 85.4896 20.0101C85.4896 19.7968 85.4296 19.6101 85.3096 19.4501C85.2029 19.2901 85.0096 19.1435 84.7296 19.0101C84.4496 18.8635 84.0496 18.7235 83.5296 18.5901C82.5695 18.3368 81.8295 18.0035 81.3095 17.5902C80.7895 17.1768 80.5295 16.5235 80.5295 15.6302C80.5295 15.0968 80.6629 14.6102 80.9295 14.1702C81.1962 13.7302 81.5829 13.3769 82.0895 13.1102C82.5962 12.8435 83.1962 12.7102 83.8896 12.7102C84.7162 12.7102 85.4229 12.8835 86.0096 13.2302C86.5962 13.5635 87.0562 13.9635 87.3896 14.4302L85.8496 15.5702C85.6629 15.3302 85.3896 15.0968 85.0296 14.8702C84.6696 14.6302 84.2162 14.5102 83.6695 14.5102C83.3362 14.5102 83.0296 14.6035 82.7495 14.7902C82.4695 14.9769 82.3295 15.2368 82.3295 15.5702C82.3295 15.9035 82.4562 16.1768 82.7095 16.3902C82.9762 16.5902 83.4562 16.7702 84.1496 16.9302C85.3229 17.2102 86.1562 17.5768 86.6496 18.0302C87.1429 18.4701 87.3896 19.0568 87.3896 19.7901C87.3896 20.4301 87.2229 20.9835 86.8896 21.4501C86.5696 21.9035 86.1429 22.2568 85.6096 22.5101C85.0896 22.7501 84.5229 22.8701 83.9096 22.8701Z" fill="white"/>
<path d="M74.0845 22.9501C73.3245 22.9501 72.6712 22.8168 72.1245 22.5501C71.5779 22.2834 71.1579 21.9035 70.8645 21.4101C70.5845 20.9035 70.4445 20.3035 70.4445 19.6101C70.4445 18.9701 70.5912 18.4035 70.8845 17.9102C71.1779 17.4035 71.5979 17.0035 72.1445 16.7102C72.6912 16.4168 73.3379 16.2702 74.0845 16.2702C75.0179 16.2702 75.7645 16.4835 76.3245 16.9102C76.8979 17.3235 77.2979 17.8968 77.5246 18.6301H76.4046V16.1302C76.4046 15.7168 76.2646 15.3368 75.9845 14.9902C75.7045 14.6435 75.2112 14.4702 74.5045 14.4702C74.1312 14.4702 73.7179 14.5169 73.2645 14.6102C72.8245 14.6902 72.3645 14.8369 71.8845 15.0502L71.2845 13.5102C71.8312 13.2435 72.3979 13.0435 72.9845 12.9102C73.5712 12.7769 74.1445 12.7102 74.7045 12.7102C75.5445 12.7102 76.2379 12.8635 76.7846 13.1702C77.3312 13.4769 77.7379 13.8902 78.0046 14.4102C78.2712 14.9169 78.4046 15.4902 78.4046 16.1302V22.6701H76.9646L76.4646 20.8901L77.5246 20.5901C77.2846 21.3768 76.8579 21.9701 76.2445 22.3701C75.6312 22.7568 74.9112 22.9501 74.0845 22.9501ZM74.4445 21.1701C75.0312 21.1701 75.5045 21.0368 75.8645 20.7701C76.2246 20.4901 76.4046 20.1035 76.4046 19.6101C76.4046 19.1035 76.2246 18.7168 75.8645 18.4502C75.5045 18.1835 75.0312 18.0502 74.4445 18.0502C73.8579 18.0502 73.3845 18.1835 73.0245 18.4502C72.6645 18.7168 72.4845 19.1035 72.4845 19.6101C72.4845 20.1035 72.6645 20.4901 73.0245 20.7701C73.3845 21.0368 73.8579 21.1701 74.4445 21.1701Z" fill="white"/>
<path d="M64.8722 22.8698C63.9922 22.8698 63.2255 22.6565 62.5722 22.2298C61.9188 21.8032 61.4055 21.2098 61.0321 20.4498C60.6721 19.6765 60.4921 18.7832 60.4921 17.7698C60.4921 16.7565 60.6721 15.8698 61.0321 15.1098C61.4055 14.3498 61.9188 13.7632 62.5722 13.3498C63.2255 12.9231 63.9922 12.7098 64.8722 12.7098C65.7789 12.7098 66.5656 12.9231 67.2323 13.3498C67.9123 13.7632 68.4389 14.3498 68.8123 15.1098C69.1856 15.8698 69.3723 16.7565 69.3723 17.7698C69.3723 18.7832 69.1856 19.6765 68.8123 20.4498C68.4389 21.2098 67.9123 21.8032 67.2323 22.2298C66.5656 22.6565 65.7789 22.8698 64.8722 22.8698ZM59.9321 22.6698V9.0498H61.9322V15.1498H61.7322V20.7098H61.9322L61.4522 22.6698H59.9321ZM64.5722 21.1498C65.3989 21.1498 66.0656 20.8432 66.5722 20.2298C67.0789 19.6032 67.3323 18.7832 67.3323 17.7698C67.3323 16.7698 67.0789 15.9632 66.5722 15.3498C66.0656 14.7365 65.3989 14.4298 64.5722 14.4298C63.7589 14.4298 63.0989 14.7365 62.5922 15.3498C62.0855 15.9632 61.8322 16.7765 61.8322 17.7898C61.8322 18.8032 62.0855 19.6165 62.5922 20.2298C63.0989 20.8432 63.7589 21.1498 64.5722 21.1498Z" fill="white"/>
<path d="M53.0423 22.8701C52.0556 22.8701 51.1823 22.6634 50.4223 22.2501C49.6756 21.8235 49.0956 21.2301 48.6823 20.4701C48.2689 19.7101 48.0623 18.8235 48.0623 17.8102C48.0623 16.7835 48.2689 15.8902 48.6823 15.1302C49.0956 14.3702 49.6756 13.7769 50.4223 13.3502C51.1823 12.9235 52.0556 12.7102 53.0423 12.7102C54.0423 12.7102 54.9156 12.9235 55.6623 13.3502C56.409 13.7769 56.989 14.3702 57.4023 15.1302C57.829 15.8902 58.0423 16.7835 58.0423 17.8102C58.0423 18.8235 57.829 19.7101 57.4023 20.4701C56.989 21.2301 56.409 21.8235 55.6623 22.2501C54.9156 22.6634 54.0423 22.8701 53.0423 22.8701ZM53.0423 20.9501C53.9356 20.9501 54.649 20.6635 55.1823 20.0901C55.729 19.5035 56.0023 18.7435 56.0023 17.8102C56.0023 16.8635 55.729 16.0968 55.1823 15.5102C54.649 14.9235 53.9356 14.6302 53.0423 14.6302C52.1623 14.6302 51.4489 14.9235 50.9023 15.5102C50.3689 16.0835 50.1023 16.8435 50.1023 17.7902C50.1023 18.7368 50.3689 19.5035 50.9023 20.0901C51.4489 20.6635 52.1623 20.9501 53.0423 20.9501Z" fill="white"/>
<path d="M45.4803 22.7698C45.1336 22.7698 44.8269 22.6898 44.5603 22.5298C44.2936 22.3565 44.0803 22.1098 43.9203 21.7898C43.7736 21.4698 43.7003 21.0765 43.7003 20.6098V9.0498H45.6603V19.9098C45.6603 20.3232 45.7603 20.6032 45.9603 20.7498C46.1736 20.8965 46.4136 20.9698 46.6803 20.9698V22.5698C46.507 22.6365 46.3203 22.6832 46.1203 22.7098C45.9203 22.7498 45.707 22.7698 45.4803 22.7698Z" fill="white"/>
<path d="M37.1189 22.8701C36.1722 22.8701 35.3389 22.6634 34.6189 22.2501C33.8989 21.8235 33.3389 21.2301 32.9389 20.4701C32.5389 19.7101 32.3389 18.8235 32.3389 17.8102C32.3389 16.7835 32.5389 15.8902 32.9389 15.1302C33.3389 14.3702 33.8989 13.7769 34.6189 13.3502C35.3389 12.9235 36.1722 12.7102 37.1189 12.7102C38.0789 12.7102 38.9189 12.9235 39.6389 13.3502C40.3589 13.7769 40.9189 14.3702 41.3189 15.1302C41.7189 15.8902 41.9189 16.7835 41.9189 17.8102C41.9189 17.9035 41.9123 18.0035 41.8989 18.1102C41.8989 18.2035 41.8923 18.2902 41.8789 18.3702H34.2389V16.6502H40.4389L39.8789 17.8102C39.8789 16.7968 39.6522 15.9635 39.1989 15.3102C38.7456 14.6569 38.0522 14.3302 37.1189 14.3302C36.2922 14.3302 35.6322 14.5969 35.1389 15.1302C34.6455 15.6502 34.3989 16.3368 34.3989 17.1902V18.2302C34.3989 19.1235 34.6389 19.8368 35.1189 20.3701C35.5989 20.8901 36.2656 21.1501 37.1189 21.1501C37.9056 21.1501 38.5122 20.9835 38.9389 20.6501C39.3656 20.3168 39.7389 19.9035 40.0589 19.4101L41.5589 20.3501C41.1056 21.1901 40.5189 21.8235 39.7989 22.2501C39.0922 22.6634 38.1989 22.8701 37.1189 22.8701Z" fill="white"/>
<path d="M28.5405 16.9096H27.2605L31.2205 9.04956H33.4606L28.6205 18.2096L28.9205 16.4896V22.6696H26.9205V16.4896L27.2005 18.2096L22.4004 9.04956H24.6204L28.5405 16.9096Z" fill="white"/>
</svg>
